<?xml version="1.0" encoding="iso-8859-1"?>
<!-- Uploaded to: SVG Repo, www.svgrepo.com, Generator: SVG Repo Mixer Tools -->
<!DOCTYPE svg PUBLIC "-//W3C//DTD SVG 1.1//EN" "http://www.w3.org/Graphics/SVG/1.1/DTD/svg11.dtd">
<svg fill="#feb2b2" version="1.1" id="Capa_1" xmlns="http://www.w3.org/2000/svg" xmlns:xlink="http://www.w3.org/1999/xlink" 
	 width="50px" height="50px" viewBox="0 0 845.716 845.715"
	 xml:space="preserve">
<g>
	<g>
		<g>
			<path d="M835.361,639.258L550.051,392.006c-0.938-0.813-1.855-1.647-2.79-2.462c-1.039,1.261-2.144,2.485-3.32,3.666
				L420.642,516.506c17.375,23.738,29.799,50.318,36.408,78.176c2.784,11.736,4.556,23.656,5.355,35.594l176.806,205.031
				c11.389,13.207,31.602,13.953,43.933,1.621l153.785-153.785C849.239,670.833,848.521,650.661,835.361,639.258z"/>
			<path d="M251.031,388.665c27.857,6.608,54.438,19.032,78.176,36.408l123.297-123.298c1.175-1.175,2.398-2.282,3.662-3.326
				c-0.814-0.933-1.646-1.85-2.458-2.786L206.456,10.354c-11.402-13.158-31.573-13.878-43.885-1.566L8.787,162.572
				c-12.332,12.332-11.586,32.544,1.622,43.933l205.028,176.802C227.442,384.117,239.365,385.897,251.031,388.665z"/>
			<path d="M421.026,582.288c-8.946-24.744-23.332-47.797-42.336-67.67l143.329-143.329c0.805-0.805,1.505-1.67,2.144-2.566
				c5.563-7.811,4.863-18.711-2.144-25.718l-19.31-19.31c-3.904-3.905-9.022-5.856-14.142-5.856c-4.065,0-8.119,1.252-11.576,3.714
				c-0.896,0.639-1.762,1.34-2.566,2.144L331.097,467.026c-19.873-19.004-42.925-33.393-67.67-42.336
				c-6.413-2.318-12.935-4.292-19.55-5.86c-14.24-3.38-28.783-5.043-43.214-5.043c-30.165,0-59.857,7.267-85.363,21.329
				c-34.122,18.814-69.673,56.758-57.565,101.768c2.884,10.725,8.455,20.268,16.556,28.369
				c11.702,11.699,28.321,19.754,46.798,22.678c5.222,0.824,10.358,1.189,15.399,1.189c20.347,0,39.13-5.973,55.614-11.854
				c27.82-9.926,55.679-20.521,82.981-31.035c-5.436,7.941-11.327,15.691-17.485,23.299c-6.695,8.273-13.7,16.383-20.764,24.393
				c-3.296,3.734-6.604,7.453-9.898,11.152l-4.349,4.889c-33.663,37.871-67.959,79.186-85.061,131.066
				c-8.015,24.316-10.955,49.064-8.738,72.707c1.134,12.096,12.846,20.303,24.646,17.422l12.781-3.119
				c9.491-2.316,15.963-11.154,15.197-20.895c-1.251-15.9,0.917-32.74,6.449-49.521c8.511-25.82,22.703-48.93,39.566-71.006
				c7.215-9.443,14.915-18.701,22.874-27.9c3.914-4.521,7.889-9.031,11.897-13.543l4.319-4.854
				c3.813-4.281,7.642-8.582,11.458-12.918c-3.228,8.729-6.411,17.475-9.529,26.211c-7.339,20.568-14.819,44.717-10.662,71.018
				c2.922,18.477,10.977,35.096,22.678,46.797c8.101,8.102,17.645,13.672,28.367,16.557c6.148,1.652,12.172,2.418,18.025,2.418
				c37.001,0,67.497-30.521,83.74-59.982c20.792-37.709,26.729-84.574,16.289-128.578
				C425.317,595.223,423.345,588.702,421.026,582.288z M173.621,525.463c-12.414,4.43-25.376,8.646-37.197,8.646
				c-2.296,0-4.548-0.158-6.745-0.508c-6.78-1.07-13.102-3.848-16.497-7.242c-1.621-1.621-2.109-2.926-2.335-3.766
				c-3.59-13.346,15.972-31.021,31.009-39.312c17.38-9.584,37.769-14.529,58.631-14.531c10.217,0,20.544,1.186,30.694,3.594
				c13.736,3.26,27.004,8.918,39.326,16.705C238.71,501.331,205.982,513.918,173.621,525.463z M362.436,703.86
				c-7.615,13.812-23.151,31.439-35.973,31.439c-1.139,0-2.254-0.139-3.342-0.43c-0.84-0.229-2.144-0.715-3.765-2.336
				c-3.396-3.396-6.171-9.717-7.243-16.494c-2.136-13.516,2.85-29.119,8.139-43.945c11.546-32.361,24.133-65.088,36.415-96.885
				c7.788,12.322,13.447,25.59,16.706,39.326C380.698,645.411,376.713,677.967,362.436,703.86z"/>
		</g>
	</g>
</g>
</svg>